HIERARCHY
ROOT root
{
	OFFSET 0.000000 0.000000 0.000000
	CHANNELS 6 Xposition Yposition Zposition Zrotation Yrotation Xrotation
	JOINT lhip
	{
		OFFSET 0.058581 -0.082280 -0.017664
		CHANNELS 3 Zrotation Yrotation Xrotation
		JOINT lknee
		{
			OFFSET 0.043451 -0.386469 0.008037
			CHANNELS 3 Zrotation Yrotation Xrotation
			JOINT lankle
			{
				OFFSET -0.014790 -0.426874 -0.037428
				CHANNELS 3 Zrotation Yrotation Xrotation
				JOINT ltoe
				{
					OFFSET 0.041054 -0.060286 0.122042
					CHANNELS 3 Zrotation Yrotation Xrotation
					End Site
					{
						OFFSET 0.000000 0.000000 0.000000
					}
				}
			}
		}
	}
	JOINT rhip
	{
		OFFSET -0.060310 -0.090513 -0.013543
		CHANNELS 3 Zrotation Yrotation Xrotation
		JOINT rknee
		{
			OFFSET -0.043257 -0.383688 -0.004843
			CHANNELS 3 Zrotation Yrotation Xrotation
			JOINT rankle
			{
				OFFSET 0.019056 -0.420046 -0.034562
				CHANNELS 3 Zrotation Yrotation Xrotation
				JOINT rtoe
				{
					OFFSET -0.034840 -0.062106 0.130323
					CHANNELS 3 Zrotation Yrotation Xrotation
					End Site
					{
						OFFSET 0.000000 0.000000 0.000000
					}
				}
			}
		}
	}
	JOINT lowerback
	{
		OFFSET 0.004439 0.124404 -0.038385
		CHANNELS 3 Zrotation Yrotation Xrotation
		JOINT upperback
		{
			OFFSET 0.004488 0.137956 0.026820
			CHANNELS 3 Zrotation Yrotation Xrotation
			JOINT chest
			{
				OFFSET -0.002265 0.056032 0.002855
				CHANNELS 3 Zrotation Yrotation Xrotation
				JOINT lowerneck
				{
					OFFSET -0.013390 0.211636 -0.033468
					CHANNELS 3 Zrotation Yrotation Xrotation
					JOINT upperneck
					{
						OFFSET 0.010113 0.088937 0.050410
						CHANNELS 3 Zrotation Yrotation Xrotation
						End Site
						{
							OFFSET 0.000000 0.000000 0.000000
						}
					}
				}
				JOINT lclavicle
				{
					OFFSET 0.071702 0.114000 -0.018898
					CHANNELS 3 Zrotation Yrotation Xrotation
					JOINT lshoulder
					{
						OFFSET 0.122921 0.045205 -0.019046
						CHANNELS 3 Zrotation Yrotation Xrotation
						JOINT lelbow
						{
							OFFSET 0.255332 -0.015649 -0.022946
							CHANNELS 3 Zrotation Yrotation Xrotation
							JOINT lwrist
							{
								OFFSET 0.265709 0.012698 -0.007375
								CHANNELS 3 Zrotation Yrotation Xrotation
								End Site
								{
									OFFSET 0.000000 0.000000 0.000000
								}
							}
						}
					}
				}
				JOINT rclavicle
				{
					OFFSET -0.082954 0.112472 -0.023707
					CHANNELS 3 Zrotation Yrotation Xrotation
					JOINT rshoulder
					{
						OFFSET -0.113228 0.046853 -0.008472
						CHANNELS 3 Zrotation Yrotation Xrotation
						JOINT relbow
						{
							OFFSET -0.260127 -0.014369 -0.031269
							CHANNELS 3 Zrotation Yrotation Xrotation
							JOINT rwrist
							{
								OFFSET -0.269108 0.006794 -0.006027
								CHANNELS 3 Zrotation Yrotation Xrotation
								End Site
								{
									OFFSET 0.000000 0.000000 0.000000
								}
							}
						}
					}
				}
			}
		}
	}
}
MOTION
Frames: 8
Frame Time: 0.033333
0.326117 0.211997 0.979632 86.990700 0.005090 90.699786 6.499598 2.300612 -9.631808 -3.504065 4.536601 18.505020 1.709421 6.914711 -8.697495 0.000000 -0.000000 0.000000 -9.990916 -4.283900 -13.722609 0.918017 -2.362121 20.753331 8.905270 -2.000089 -9.408627 0.000000 -0.000000 0.000000 -0.388470 1.450916 15.334523 9.676049 -3.234435 1.010500 3.440578 1.243734 3.494221 -2.954670 7.751427 -5.484579 -2.719870 -4.461560 3.763550 -3.358918 -11.366414 -9.975867 -51.441205 -48.364322 16.432509 103.417955 -80.909338 -73.016470 20.591425 -18.438845 -32.594533 11.893583 2.670001 -0.425086 29.532236 14.539439 11.433781 -141.530463 42.302526 -100.917605 -16.586059 20.597671 -25.171441 
0.326760 0.211863 0.979446 88.518944 0.257234 91.050184 6.677768 1.766214 -10.334540 -3.354598 3.660403 18.616827 1.556091 6.437966 -8.411095 0.000000 -0.000000 0.000000 -9.699030 -4.601960 -13.394489 0.660243 -3.413140 20.468520 8.803608 -2.249345 -9.475718 0.000000 -0.000000 0.000000 -0.418374 1.455066 15.654519 9.920917 -3.411196 0.416695 3.796443 1.452730 3.339834 -3.399943 7.334719 -5.654653 -2.548683 -4.927215 3.311657 -3.119898 -11.658779 -9.930849 -52.848143 -48.450813 17.615731 111.693659 -80.850416 -80.874405 20.631681 -18.066580 -33.010198 11.553314 2.784839 -0.693503 29.795733 14.554047 11.072990 -143.448770 41.709637 -102.415674 -16.659073 20.128730 -25.811446 
0.326666 0.209748 0.980895 91.276456 0.629780 91.965383 7.077754 0.898365 -11.497329 -3.077913 2.559965 17.904184 1.079977 5.407993 -7.407981 0.000000 -0.000000 0.000000 -9.208100 -5.190795 -12.784358 0.516056 -5.242194 19.109261 8.776176 -2.769854 -9.152493 0.000000 -0.000000 0.000000 -0.675510 1.673049 15.695905 10.000991 -3.603918 -0.471039 4.120580 1.595433 3.192656 -3.349116 6.522573 -6.158941 -1.854573 -6.274326 2.929444 -2.808038 -12.239966 -9.971250 -54.958288 -49.286378 19.636244 117.570363 -80.864700 -85.523315 20.683092 -18.289419 -33.070821 11.269231 2.985424 -0.970495 30.072516 14.327885 10.739016 -145.247667 40.808465 -103.200639 -18.464774 19.031274 -27.299620 
0.325889 0.205884 0.985085 95.225058 0.865353 93.294613 7.585955 0.050868 -12.702951 -2.947807 1.272733 15.910655 0.184904 3.847219 -5.509869 0.000000 -0.000000 0.000000 -8.637090 -6.311675 -11.734395 0.483450 -7.512030 16.522561 8.999097 -3.404730 -8.384918 0.000000 -0.000000 0.000000 -0.807457 2.095714 15.585793 9.334577 -3.598945 -1.491334 3.971555 1.959868 2.928027 -2.928495 4.354553 -6.687661 0.464007 -8.194262 1.940096 -2.550741 -13.534162 -10.275534 -58.645156 -50.280870 23.091649 122.429047 -81.983304 -88.955309 21.065467 -17.867581 -34.047656 9.964442 3.628084 -1.248541 30.942974 13.825186 9.556581 -145.928774 39.697012 -102.195679 -18.413030 18.526639 -27.437849 
0.323746 0.200575 0.991720 99.011069 0.674625 94.570953 7.684152 -0.596754 -13.606065 -2.797610 0.491803 13.329053 -0.621743 2.175112 -3.104965 0.000000 -0.000000 0.000000 -8.167567 -7.489783 -10.660945 0.430940 -9.390474 13.496080 9.308531 -4.018564 -7.118250 0.000000 -0.000000 0.000000 -0.502072 2.881930 15.468705 7.341085 -2.747093 -2.451690 2.999481 2.372723 2.998648 -1.693288 0.183934 -6.599856 4.480697 -10.190203 -0.619201 -2.490787 -15.377145 -10.803149 -63.610720 -50.815880 27.972180 129.698550 -84.146065 -95.048119 21.739886 -16.946695 -35.554706 7.217950 5.490330 -1.716337 29.902380 15.381227 6.469749 -143.099744 39.069896 -99.114974 -18.024874 18.353225 -26.089514 
0.319530 0.194362 0.999742 100.271010 0.006378 95.279919 7.172086 -0.729693 -13.936314 -2.818481 0.549484 11.633105 -0.616566 1.736403 -1.318824 0.000000 -0.000000 0.000000 -7.893715 -8.003107 -10.918408 0.090950 -8.913911 12.143684 9.242394 -4.743880 -5.841041 0.000000 -0.000000 0.000000 0.854832 4.301786 15.870014 3.241638 -0.337811 -2.563076 1.099850 2.484380 1.814920 -0.000890 -6.724804 -5.357046 8.947895 -10.223181 -2.138282 -3.135301 -18.121226 -11.056111 -67.695036 -49.630205 32.000318 142.509094 -86.539952 -108.489915 21.647295 -17.094585 -34.168135 1.828325 10.784998 -2.175752 25.904411 19.069074 1.586995 -128.434493 43.375205 -91.061189 -13.730624 19.462586 -20.997734 
0.315743 0.188636 1.005230 97.940247 -0.582090 94.789383 6.467870 0.502435 -12.654503 -3.067647 1.643981 10.706684 0.727690 3.384810 -1.429023 0.000000 -0.000000 0.000000 -7.837050 -7.223609 -11.889639 -0.221035 -6.081174 12.711493 9.162774 -5.056765 -5.084919 0.000000 -0.000000 0.000000 2.331383 4.996333 17.059584 -1.092236 3.560620 -2.463915 -0.690499 3.293967 0.579654 0.265095 -13.549698 -4.273444 10.772859 -7.951779 -0.761211 -4.595582 -20.517994 -11.309795 -70.588978 -47.814851 35.989293 118.230233 -88.010617 -86.485169 21.010858 -19.008288 -32.433890 -4.942192 18.479235 -3.392516 17.027929 24.696234 -3.602320 -90.693249 44.883316 -65.712792 -1.133089 18.654664 -15.824643 
0.314403 0.182321 1.003649 94.700744 -0.365380 94.065108 6.551277 2.452554 -11.082375 -3.540216 2.792260 10.311215 1.221310 5.519132 -2.243893 0.000000 -0.000000 0.000000 -6.938007 -6.574051 -13.076192 -0.811628 -3.853325 14.637221 8.277390 -4.158016 -5.129739 0.000000 -0.000000 0.000000 2.232747 4.906524 17.359462 -4.141089 5.590836 -2.472180 -0.016700 5.364634 -0.051553 0.136651 -16.653195 -3.748915 11.597612 -5.107031 1.419992 -1.598838 -23.015736 -10.232903 -72.627977 -47.197077 34.540361 104.696290 -86.907385 -69.357906 20.351140 -19.852151 -36.110680 -14.767784 24.258582 -5.499137 15.333718 26.057297 -18.568614 -53.566474 41.142117 -32.031526 8.270447 23.457666 -21.482940 
